<svg width="584" height="398" viewBox="0 0 584 398" fill="none" xmlns="http://www.w3.org/2000/svg">
<path d="M372.603 64V164L318.5 194.5L286.5 175.5L248 192L199.397 164V64L286 14L372.603 64ZM205.397 67.4639V160.535L253.5 188.5L286 170L313.5 191.5L366.603 160.535V67.4639L286 20.9277L205.397 67.4639Z" fill="url(#paint0_linear_0_1)"/>
<path d="M257.999 37.0986L205.4 67.4199V121.688H199.4V63.9541L255.001 31.9014L257.999 37.0986Z" fill="#9EC3FF"/>
<path d="M466.603 240V340L380 390L332 362.5L376 330V227.5L345.5 210L380 190L466.603 240ZM376.5 227.5V331L338 359L380 383.071L460.603 336.535V243.464L380 196.928L351.5 213.5L376.5 227.5Z" fill="url(#paint1_linear_0_1)"/>
<path d="M197 227.5V331L241.5 356.5L186 389L99.3975 339V239L186 189L224.5 211.5L197 227.5ZM105.397 242.464V335.535L186 382.071L236.5 353.5L197 331V315.5V227.5L218.5 215L186 195.928L105.397 242.464Z" fill="url(#paint2_linear_0_1)"/>
<path d="M114 328.196L117 323L190.612 365.5L187.612 370.696L114 328.196Z" fill="url(#paint3_linear_0_1)"/>
<path d="M377 370.696L374 365.5L447.612 323L450.612 328.196L377 370.696Z" fill="url(#paint4_linear_0_1)"/>
<path d="M219 79.6962L216 74.5L289.612 32L292.612 37.1962L219 79.6962Z" fill="url(#paint5_linear_0_1)"/>
<path d="M381.526 224V334L286.263 389L191 334V224L286.263 169L381.526 224ZM197 227.464V330.535L286.263 382.071L375.526 330.535V227.464L286.263 175.928L197 227.464Z" fill="url(#paint6_linear_0_1)" fill-opacity="0.85"/>
<g filter="url(#filter0_d_0_1)">
<rect x="127.725" y="258.574" width="28.8654" height="4.66537" fill="#3B82F6"/>
<rect x="127.724" y="271.086" width="28.8654" height="4.66537" fill="#3B82F6"/>
<rect x="127.724" y="283.597" width="28.8654" height="4.66537" fill="#3B82F6"/>
</g>
<g filter="url(#filter1_d_0_1)">
<rect x="266.439" y="258.574" width="28.8654" height="4.66537" fill="#3B82F6"/>
<rect x="266.439" y="271.086" width="28.8654" height="4.66537" fill="#3B82F6"/>
<rect x="266.439" y="283.597" width="28.8654" height="4.66537" fill="#3B82F6"/>
</g>
<path d="M12 288.404V258.596H22.4172L30.2686 285.338H31.0896L38.941 258.596H49.3582V288.404H43.97V261.832H43.1489L35.3489 288.404H26.0093L18.2093 261.832H17.3882V288.404H12Z" fill="url(#paint7_linear_0_1)" fill-opacity="0.9"/>
<path d="M66.6016 288.404V258.596H72.1438V288.404H66.6016Z" fill="url(#paint8_linear_0_1)" fill-opacity="0.9"/>
<path d="M89.3812 288.404V258.596H94.9234V270.988H95.7444L109.138 258.596H116.374L100.158 273.287L116.938 288.404H109.497L95.7444 275.757H94.9234V288.404H89.3812Z" fill="url(#paint9_linear_0_1)" fill-opacity="0.9"/>
<path d="M217.81 288.404L212.524 258.596H218.066L222.377 285.295H223.198L228.74 258.596H238.439L243.981 285.295H244.802L249.061 258.596H254.603L249.318 288.404H239.619L233.974 261.321H233.153L227.56 288.404H217.81Z" fill="url(#paint10_linear_0_1)" fill-opacity="0.9"/>
<path d="M306.911 288.404V284.316H311.734V262.684H306.911V258.596H325.128C327.283 258.596 329.165 258.908 330.773 259.533C332.38 260.129 333.629 260.995 334.519 262.13C335.442 263.238 335.904 264.558 335.904 266.091V266.516C335.904 267.879 335.596 269 334.98 269.88C334.365 270.761 333.612 271.442 332.723 271.924C331.867 272.407 331.046 272.748 330.259 272.946V273.628C331.046 273.798 331.884 274.139 332.774 274.65C333.698 275.132 334.467 275.814 335.083 276.694C335.733 277.574 336.058 278.723 336.058 280.143V280.569C336.058 282.215 335.596 283.62 334.673 284.784C333.749 285.948 332.466 286.842 330.824 287.467C329.216 288.092 327.351 288.404 325.23 288.404H306.911ZM317.328 284.231H324.563C326.411 284.231 327.865 283.862 328.925 283.124C329.986 282.386 330.516 281.364 330.516 280.058V279.674C330.516 278.369 329.986 277.347 328.925 276.609C327.899 275.87 326.445 275.501 324.563 275.501H317.328V284.231ZM317.328 271.286H324.563C326.308 271.286 327.711 270.931 328.771 270.221C329.832 269.483 330.362 268.489 330.362 267.24V266.815C330.362 265.565 329.832 264.586 328.771 263.876C327.745 263.138 326.342 262.769 324.563 262.769H317.328V271.286Z" fill="url(#paint11_linear_0_1)" fill-opacity="0.9"/>
<path d="M355.255 288.404L349.969 258.596H355.511L359.822 285.295H360.643L366.185 258.596H375.884L381.426 285.295H382.247L386.506 258.596H392.049L386.763 288.404H377.064L371.419 261.321H370.598L365.005 288.404H355.255Z" fill="url(#paint12_linear_0_1)" fill-opacity="0.9"/>
<path d="M420.42 289C416.007 289 412.501 287.978 409.901 285.934C407.301 283.862 406 280.881 406 276.992V270.008C406 266.119 407.301 263.152 409.901 261.109C412.501 259.036 416.007 258 420.42 258C424.834 258 428.34 259.036 430.94 261.109C433.574 263.152 434.891 266.119 434.891 270.008V276.992C434.891 280.881 433.574 283.862 430.94 285.934C428.34 287.978 424.834 289 420.42 289ZM420.42 284.87C423.26 284.87 425.449 284.188 426.989 282.826C428.528 281.435 429.298 279.547 429.298 277.162V269.838C429.298 267.453 428.528 265.58 426.989 264.217C425.449 262.826 423.26 262.13 420.42 262.13C417.649 262.13 415.477 262.826 413.903 264.217C412.329 265.58 411.543 267.453 411.543 269.838V277.162C411.543 279.547 412.329 281.435 413.903 282.826C415.477 284.188 417.649 284.87 420.42 284.87Z" fill="url(#paint13_linear_0_1)" fill-opacity="0.9"/>
<path d="M451.202 288.404V258.596H466.289C468.513 258.596 470.463 258.923 472.139 259.576C473.85 260.2 475.167 261.109 476.091 262.301C477.049 263.493 477.528 264.913 477.528 266.559V267.027C477.528 268.901 476.98 270.406 475.886 271.541C474.825 272.648 473.525 273.429 471.985 273.883V274.565C473.285 274.621 474.329 274.99 475.116 275.672C475.903 276.325 476.296 277.276 476.296 278.525V288.404H470.703V279.163C470.703 278.397 470.463 277.787 469.984 277.332C469.505 276.878 468.735 276.651 467.675 276.651H456.745V288.404H451.202ZM456.745 272.478H465.674C467.658 272.478 469.197 272.066 470.292 271.243C471.387 270.391 471.934 269.242 471.934 267.794V267.453C471.934 266.005 471.387 264.87 470.292 264.047C469.232 263.195 467.692 262.769 465.674 262.769H456.745V272.478Z" fill="url(#paint14_linear_0_1)" fill-opacity="0.9"/>
<path d="M493.376 288.404V258.596H498.918V270.988H499.739L513.133 258.596H520.368L504.152 273.287L520.933 288.404H513.492L499.739 275.757H498.918V288.404H493.376Z" fill="url(#paint15_linear_0_1)" fill-opacity="0.9"/>
<path d="M546.76 289C544.058 289 541.663 288.603 539.576 287.808C537.489 287.013 535.847 285.849 534.65 284.316C533.487 282.755 532.905 280.867 532.905 278.652V277.588H538.396V278.652C538.396 280.753 539.149 282.329 540.654 283.379C542.193 284.429 544.229 284.955 546.76 284.955C549.326 284.955 551.259 284.515 552.559 283.635C553.859 282.726 554.509 281.562 554.509 280.143C554.509 279.206 554.201 278.44 553.585 277.843C552.97 277.247 552.097 276.779 550.968 276.438C549.839 276.069 548.488 275.728 546.914 275.416L545.016 275.033C542.724 274.579 540.722 274.025 539.012 273.372C537.335 272.691 536.035 271.797 535.112 270.69C534.188 269.582 533.726 268.163 533.726 266.431C533.726 264.671 534.239 263.167 535.266 261.918C536.326 260.668 537.78 259.703 539.627 259.022C541.475 258.341 543.647 258 546.145 258C548.642 258 550.866 258.355 552.816 259.065C554.8 259.774 556.357 260.825 557.486 262.216C558.614 263.607 559.179 265.353 559.179 267.453V268.986H553.688V267.453C553.688 266.176 553.363 265.14 552.713 264.345C552.097 263.55 551.225 262.968 550.096 262.599C548.967 262.23 547.65 262.045 546.145 262.045C543.955 262.045 542.245 262.429 541.013 263.195C539.816 263.933 539.217 264.969 539.217 266.304C539.217 267.212 539.474 267.964 539.987 268.56C540.534 269.128 541.321 269.597 542.347 269.966C543.374 270.335 544.656 270.661 546.196 270.945L548.095 271.328C550.421 271.754 552.474 272.308 554.253 272.989C556.032 273.642 557.434 274.536 558.46 275.672C559.487 276.807 560 278.269 560 280.058C560 281.846 559.453 283.408 558.358 284.742C557.297 286.076 555.775 287.126 553.791 287.893C551.806 288.631 549.463 289 546.76 289Z" fill="url(#paint16_linear_0_1)" fill-opacity="0.9"/>
<defs>
<filter id="filter0_d_0_1" x="112.724" y="243.574" width="58.8655" height="59.6888" filterUnits="userSpaceOnUse" color-interpolation-filters="sRGB">
<feFlood flood-opacity="0" result="BackgroundImageFix"/>
<feColorMatrix in="SourceAlpha" type="matrix" values="0 0 0 0 0 0 0 0 0 0 0 0 0 0 0 0 0 0 127 0" result="hardAlpha"/>
<feOffset/>
<feGaussianBlur stdDeviation="7.5"/>
<feComposite in2="hardAlpha" operator="out"/>
<feColorMatrix type="matrix" values="0 0 0 0 0.231373 0 0 0 0 0.509804 0 0 0 0 0.964706 0 0 0 1 0"/>
<feBlend mode="normal" in2="BackgroundImageFix" result="effect1_dropShadow_0_1"/>
<feBlend mode="normal" in="SourceGraphic" in2="effect1_dropShadow_0_1" result="shape"/>
</filter>
<filter id="filter1_d_0_1" x="251.439" y="243.574" width="58.8654" height="59.6888" filterUnits="userSpaceOnUse" color-interpolation-filters="sRGB">
<feFlood flood-opacity="0" result="BackgroundImageFix"/>
<feColorMatrix in="SourceAlpha" type="matrix" values="0 0 0 0 0 0 0 0 0 0 0 0 0 0 0 0 0 0 127 0" result="hardAlpha"/>
<feOffset/>
<feGaussianBlur stdDeviation="7.5"/>
<feComposite in2="hardAlpha" operator="out"/>
<feColorMatrix type="matrix" values="0 0 0 0 0.231373 0 0 0 0 0.509804 0 0 0 0 0.964706 0 0 0 1 0"/>
<feBlend mode="normal" in2="BackgroundImageFix" result="effect1_dropShadow_0_1"/>
<feBlend mode="normal" in="SourceGraphic" in2="effect1_dropShadow_0_1" result="shape"/>
</filter>
<linearGradient id="paint0_linear_0_1" x1="379" y1="34" x2="231" y2="165.5" gradientUnits="userSpaceOnUse">
<stop stop-color="#003DA0"/>
<stop offset="1" stop-color="#3B82F6"/>
</linearGradient>
<linearGradient id="paint1_linear_0_1" x1="519" y1="154" x2="343.5" y2="404" gradientUnits="userSpaceOnUse">
<stop stop-color="#062352"/>
<stop offset="1" stop-color="#003DA0"/>
</linearGradient>
<linearGradient id="paint2_linear_0_1" x1="152" y1="252" x2="186" y2="389" gradientUnits="userSpaceOnUse">
<stop stop-color="#234C90"/>
<stop offset="1" stop-color="#3B82F6"/>
</linearGradient>
<linearGradient id="paint3_linear_0_1" x1="174.5" y1="418.5" x2="117" y2="231" gradientUnits="userSpaceOnUse">
<stop stop-color="#3B82F6"/>
<stop offset="1" stop-color="#234C90"/>
</linearGradient>
<linearGradient id="paint4_linear_0_1" x1="373.75" y1="365.067" x2="538" y2="270.5" gradientUnits="userSpaceOnUse">
<stop stop-color="#062352"/>
<stop offset="1" stop-color="#234C90"/>
</linearGradient>
<linearGradient id="paint5_linear_0_1" x1="215.75" y1="74.067" x2="289.362" y2="31.567" gradientUnits="userSpaceOnUse">
<stop stop-color="#3B82F6"/>
<stop offset="1" stop-color="#234C90"/>
</linearGradient>
<linearGradient id="paint6_linear_0_1" x1="292" y1="-18.5" x2="286" y2="439.5" gradientUnits="userSpaceOnUse">
<stop offset="0.345825" stop-color="#D9E7FF"/>
<stop offset="0.850962" stop-color="#0F4294"/>
</linearGradient>
<linearGradient id="paint7_linear_0_1" x1="286" y1="289" x2="286" y2="258" gradientUnits="userSpaceOnUse">
<stop stop-color="#3B82F6"/>
<stop offset="0.442308" stop-color="white"/>
</linearGradient>
<linearGradient id="paint8_linear_0_1" x1="286" y1="289" x2="286" y2="258" gradientUnits="userSpaceOnUse">
<stop stop-color="#3B82F6"/>
<stop offset="0.442308" stop-color="white"/>
</linearGradient>
<linearGradient id="paint9_linear_0_1" x1="286" y1="289" x2="286" y2="258" gradientUnits="userSpaceOnUse">
<stop stop-color="#3B82F6"/>
<stop offset="0.442308" stop-color="white"/>
</linearGradient>
<linearGradient id="paint10_linear_0_1" x1="286" y1="289" x2="286" y2="258" gradientUnits="userSpaceOnUse">
<stop stop-color="#3B82F6"/>
<stop offset="0.442308" stop-color="white"/>
</linearGradient>
<linearGradient id="paint11_linear_0_1" x1="286" y1="289" x2="286" y2="258" gradientUnits="userSpaceOnUse">
<stop stop-color="#3B82F6"/>
<stop offset="0.442308" stop-color="white"/>
</linearGradient>
<linearGradient id="paint12_linear_0_1" x1="286" y1="289" x2="286" y2="258" gradientUnits="userSpaceOnUse">
<stop stop-color="#3B82F6"/>
<stop offset="0.442308" stop-color="white"/>
</linearGradient>
<linearGradient id="paint13_linear_0_1" x1="286" y1="289" x2="286" y2="258" gradientUnits="userSpaceOnUse">
<stop stop-color="#3B82F6"/>
<stop offset="0.442308" stop-color="white"/>
</linearGradient>
<linearGradient id="paint14_linear_0_1" x1="286" y1="289" x2="286" y2="258" gradientUnits="userSpaceOnUse">
<stop stop-color="#3B82F6"/>
<stop offset="0.442308" stop-color="white"/>
</linearGradient>
<linearGradient id="paint15_linear_0_1" x1="286" y1="289" x2="286" y2="258" gradientUnits="userSpaceOnUse">
<stop stop-color="#3B82F6"/>
<stop offset="0.442308" stop-color="white"/>
</linearGradient>
<linearGradient id="paint16_linear_0_1" x1="286" y1="289" x2="286" y2="258" gradientUnits="userSpaceOnUse">
<stop stop-color="#3B82F6"/>
<stop offset="0.442308" stop-color="white"/>
</linearGradient>
</defs>
</svg>
